<?xml version="1.0" encoding="UTF-8"?>
<!DOCTYPE svg PUBLIC "-//W3C//DTD SVG 1.1//EN" "http://www.w3.org/Graphics/SVG/1.1/DTD/svg11.dtd">
<!-- Creator: CorelDRAW -->
<svg xmlns="http://www.w3.org/2000/svg" xml:space="preserve" width="2048px" height="2048px" style="shape-rendering:geometricPrecision; text-rendering:geometricPrecision; image-rendering:optimizeQuality; fill-rule:evenodd; clip-rule:evenodd"
viewBox="0 0 2048 2048"
 xmlns:xlink="http://www.w3.org/1999/xlink">
 <defs>
  <style type="text/css">
   <![CDATA[
    .fil1 {fill:none}
    .fil0 {fill:#212121;fill-rule:nonzero}
   ]]>
  </style>
 </defs>
 <g id="Layer_x0020_1">
  <metadata id="CorelCorpID_0Corel-Layer"/>
  <path class="fil0" d="M1454.82 1235.14c17.6728,0 32.0008,-14.328 32.0008,-32.0008 0,-17.6728 -14.328,-32.0008 -32.0008,-32.0008l-51.652 0 0 -435.924 138.652 0 76.4587 254.862 30.6248 -9.1252 -30.6508 9.19489c2.94449,9.81497 10.1811,17.1673 19.0406,20.6244l90.7028 45.352 0 115.016 -51.854 0c-17.6728,0 -32.0008,14.328 -32.0008,32.0008 0,17.6728 14.328,32.0008 32.0008,32.0008l83.8548 0c17.6728,0 32.0008,-14.328 32.0008,-32.0008l0 -166.065c0.206693,-11.9339 -6.30237,-23.504 -17.6906,-29.1981l-0.0602363 0.121654 -98.667 -49.3335 -78.8729 -262.911c-3.3626,-14.074 -16.0205,-24.5398 -31.1244,-24.5398l-194.416 0c-17.6728,0 -32.0008,14.328 -32.0008,32.0008l0 499.908 0 0.0177165c0,17.6728 14.328,32.0008 32.0008,32.0008l83.6528 0z"/>
  <path class="fil0" d="M1565.58 1118.38c39.5103,0 75.2847,16.0181 101.182,41.9138 25.8957,25.8957 41.9138,61.6701 41.9138,101.18 0,39.5103 -16.0181,75.2847 -41.9138,101.182 -25.8969,25.8957 -61.6713,41.9138 -101.182,41.9138 -39.5103,0 -75.2847,-16.0181 -101.18,-41.9138 -25.8957,-25.8969 -41.9138,-61.6713 -41.9138,-101.182 0,-39.5103 16.0181,-75.2847 41.9138,-101.18 25.8957,-25.8957 61.6701,-41.9138 101.18,-41.9138zm55.9311 87.1642c-14.3114,-14.3102 -34.0866,-23.1626 -55.9311,-23.1626 -21.8445,0 -41.6197,8.85237 -55.93,23.1626 -14.3102,14.3102 -23.1626,34.0855 -23.1626,55.93 0,21.8445 8.85237,41.6197 23.1626,55.9311 14.3102,14.3102 34.0855,23.1626 55.93,23.1626 21.8445,0 41.6197,-8.85237 55.9311,-23.1626 14.3102,-14.3114 23.1626,-34.0866 23.1626,-55.9311 0,-21.8445 -8.85237,-41.6197 -23.1626,-55.93z"/>
  <path class="fil0" d="M1371.17 1235.14c17.6728,0 32.0008,-14.328 32.0008,-32.0008 0,-17.6728 -14.328,-32.0008 -32.0008,-32.0008l-684.182 0c-17.6728,0 -32.0008,14.328 -32.0008,32.0008 0,17.6728 14.328,32.0008 32.0008,32.0008l684.182 0z"/>
  <path class="fil0" d="M574.147 1118.38c39.5103,0 75.2847,16.0181 101.182,41.9138 25.8957,25.8957 41.9138,61.6701 41.9138,101.18 0,39.5103 -16.0193,75.2859 -41.915,101.182 -25.8957,25.8957 -61.6701,41.9138 -101.18,41.9138 -39.5103,0 -75.2847,-16.0181 -101.18,-41.9138 -25.8957,-25.8969 -41.9138,-61.6713 -41.9138,-101.182 0,-39.5103 16.0181,-75.2847 41.9138,-101.18 25.8957,-25.8957 61.6701,-41.9138 101.18,-41.9138zm55.9311 87.1642c-14.3114,-14.3102 -34.0866,-23.1626 -55.9311,-23.1626 -21.8445,0 -41.6197,8.85237 -55.93,23.1626 -14.3102,14.3102 -23.1626,34.0855 -23.1626,55.93 0,21.8445 8.85237,41.6197 23.1626,55.9311 14.3102,14.3102 34.0855,23.1626 55.93,23.1626 21.8445,0 41.6197,-8.85237 55.93,-23.1626 14.3102,-14.3102 23.1638,-34.0866 23.1638,-55.9311 0,-21.8445 -8.85237,-41.6197 -23.1626,-55.93z"/>
  <path class="fil0" d="M456.175 1235.14c17.6728,0 32.0008,-14.328 32.0008,-32.0008 0,-17.6728 -14.328,-32.0008 -32.0008,-32.0008l-140.402 0c-17.6728,0 -32.0008,14.328 -32.0008,32.0008 0,17.6728 14.328,32.0008 32.0008,32.0008l140.402 0z"/>
  <path class="fil0" d="M1065.66 707.436l-583.244 0c-44.6315,0 -85.2296,18.2823 -114.68,47.7343 -29.452,29.4508 -47.7343,70.0489 -47.7343,114.68l0 0.0011811c0,44.6303 18.2823,85.2296 47.7343,114.68 29.4508,29.452 70.0489,47.7343 114.68,47.7343l583.244 0c44.6315,0 85.2296,-18.2823 114.68,-47.7343 29.452,-29.4508 47.7343,-70.0501 47.7343,-114.68l0 -0.0011811c0,-44.6315 -18.2823,-85.2296 -47.7343,-114.68 -29.4508,-29.452 -70.0489,-47.7343 -114.68,-47.7343zm-583.244 -64.0016l583.244 0c62.2973,0 118.91,25.4634 159.931,66.4855 41.0221,41.0209 66.4855,97.6335 66.4855,159.931l0 0.0011811c0,62.2961 -25.4634,118.91 -66.4855,159.931 -41.0209,41.0221 -97.6335,66.4855 -159.931,66.4855l-583.244 0c-62.2973,0 -118.91,-25.4634 -159.931,-66.4855 -41.0221,-41.0209 -66.4855,-97.6347 -66.4855,-159.931l0 -0.0011811c0,-62.2973 25.4634,-118.91 66.4855,-159.931 41.0209,-41.0221 97.6335,-66.4855 159.931,-66.4855z"/>
  <path class="fil0" d="M1126.96 1062.05c0,-17.6728 -14.328,-32.0008 -32.0008,-32.0008 -17.6728,0 -32.0008,14.328 -32.0008,32.0008l0 141.086c0,17.6728 14.328,32.0008 32.0008,32.0008 17.6728,0 32.0008,-14.328 32.0008,-32.0008l0 -141.086z"/>
  <path class="fil0" d="M458.87 1062.05c0,-17.6728 -14.328,-32.0008 -32.0008,-32.0008 -17.6728,0 -32.0008,14.328 -32.0008,32.0008l0 141.086c0,17.6728 14.328,32.0008 32.0008,32.0008 17.6728,0 32.0008,-14.328 32.0008,-32.0008l0 -141.086z"/>
  <path class="fil0" d="M1648.91 1012.95c17.6728,0 32.0008,-14.328 32.0008,-32.0008 0,-17.6728 -14.328,-32.0008 -32.0008,-32.0008l-277.736 0c-17.6728,0 -32.0008,14.328 -32.0008,32.0008 0,17.6728 14.328,32.0008 32.0008,32.0008l277.736 0z"/>
 </g>
 <rect class="fil1" width="2048" height="2048"/>
</svg>
